<svg version="1.1" id="Layer_1" xmlns="http://www.w3.org/2000/svg" xmlns:xlink="http://www.w3.org/1999/xlink" x="0px" y="0px"
	 width="100%" viewBox="0 0 500 500" enable-background="new 0 0 500 500" xml:space="preserve">
<path fill="#1B4332" opacity="1.000000" stroke="none" 
	d="
M283.000000,501.000000 
	C188.666687,501.000000 94.833382,501.000000 1.000050,501.000000 
	C1.000034,334.333405 1.000034,167.666794 1.000017,1.000140 
	C167.666565,1.000093 334.333130,1.000093 500.999756,1.000047 
	C500.999847,167.666519 500.999847,334.333038 500.999939,500.999786 
	C428.500000,501.000000 356.000000,501.000000 283.000000,501.000000 
M411.976807,326.299286 
	C407.486603,334.441376 403.441620,342.868774 398.435547,350.680237 
	C359.442444,411.525238 285.578705,441.669647 215.038132,425.996613 
	C178.268311,417.826904 147.166092,399.875183 122.437614,371.666412 
	C113.195351,361.123413 106.056046,348.722076 98.121407,337.056824 
	C95.824326,333.679749 93.432716,331.891998 89.490501,334.256653 
	C85.665421,336.551056 85.636581,339.448242 87.669159,343.142212 
	C114.269287,391.485291 154.141479,422.761627 207.607651,436.584106 
	C238.588638,444.593567 269.558319,444.010193 300.375946,435.826477 
	C329.316437,428.141266 355.062714,414.347595 377.261200,394.175323 
	C401.131256,372.484131 418.302460,346.325836 428.929901,315.872101 
	C430.234558,312.133514 429.406616,309.392639 425.469055,307.871307 
	C421.445160,306.316681 419.110657,307.995026 417.671997,311.651733 
	C415.846954,316.290375 414.017029,320.927124 411.976807,326.299286 
M385.617401,166.050720 
	C389.005341,167.893311 391.934143,166.236420 393.264252,163.632065 
	C394.203003,161.794022 393.891541,158.261642 392.658936,156.552597 
	C387.218445,149.009033 381.570221,141.560379 375.396484,134.611008 
	C358.287048,115.352043 337.220581,101.522667 313.408844,92.154427 
	C289.104156,82.592232 263.718719,78.892487 237.599609,81.066727 
	C221.613861,82.397438 206.054199,85.730812 191.050293,91.475449 
	C171.918884,98.800415 154.684845,109.269653 139.184875,122.664940 
	C120.620026,138.708939 106.745628,158.197159 96.456001,180.349625 
	C94.876083,183.751038 95.583046,186.507843 99.102211,188.258286 
	C102.489632,189.943207 105.218239,189.351257 107.068954,185.891464 
	C108.088806,183.984894 109.071632,182.058243 110.052475,180.131149 
	C140.972809,119.380714 202.591339,86.115540 270.291443,93.939545 
	C309.060974,98.420097 341.616180,115.387413 367.838959,144.246109 
	C373.978088,151.002396 379.302338,158.499115 385.617401,166.050720 
M287.180511,194.742386 
	C282.306396,196.200485 277.384186,197.521988 272.590698,199.209167 
	C271.334229,199.651428 270.477142,201.228333 269.436646,202.284149 
	C270.668121,202.842773 271.906830,203.888153 273.129700,203.869904 
	C276.984406,203.812363 278.557159,205.815552 278.862579,209.301270 
	C280.635437,229.533875 282.374207,249.769531 284.188690,269.998383 
	C284.559326,274.130249 283.456604,276.794647 278.793793,277.194946 
	C277.905365,277.271179 277.137817,278.756256 276.314514,279.591309 
	C277.290161,280.266968 278.307648,281.578674 279.234833,281.517670 
	C286.703552,281.026489 294.163696,280.351410 301.601929,279.514709 
	C302.564178,279.406494 303.386536,278.054413 304.273682,277.278503 
	C303.262543,276.539337 302.219513,275.128815 301.245636,275.175018 
	C296.553162,275.397644 295.217224,272.910736 294.933441,268.762634 
	C294.353973,260.293518 293.500580,251.843140 292.760376,243.385010 
	C292.190186,236.869476 297.503235,231.531891 305.619659,230.465744 
	C312.270538,229.592102 317.315948,233.376251 318.114319,240.260117 
	C319.149719,249.187683 319.810364,258.158112 320.762573,267.096222 
	C321.202667,271.227325 319.515503,273.325592 315.457275,273.994171 
	C314.512299,274.149872 313.753967,275.438538 312.909760,276.205933 
	C313.993500,276.866913 315.117310,278.154510 316.154572,278.088226 
	C323.461334,277.621246 330.758087,276.946259 338.035919,276.138153 
	C339.050079,276.025574 339.942902,274.819977 340.891876,274.120331 
	C339.862213,273.383789 338.812897,271.993835 337.806305,272.024109 
	C333.515839,272.153198 331.841309,270.041321 331.510498,266.057434 
	C330.766602,257.099426 329.908813,248.150558 329.051544,239.202347 
	C328.145111,229.740616 322.028595,223.624786 312.900085,223.409760 
	C306.529724,223.259720 300.735992,225.071823 296.152527,229.828171 
	C294.991272,231.033234 293.777435,232.187668 291.915527,234.030838 
	C291.530640,229.993668 291.290955,227.182297 290.990021,224.377502 
	C289.945038,214.637985 288.878754,204.900742 287.180511,194.742386 
M69.795197,224.980759 
	C67.958023,225.920334 66.120850,226.859924 64.283684,227.799515 
	C65.829292,228.685791 67.275444,229.937668 68.939026,230.390198 
	C74.047981,231.779877 74.858047,232.947464 73.178535,238.241638 
	C67.798935,255.199295 62.353924,272.136230 56.923260,289.077637 
	C55.551380,293.357330 53.818592,297.195312 48.393349,297.565643 
	C47.589741,297.620483 46.895081,299.271515 46.150009,300.184052 
	C47.088787,300.930237 48.072346,302.370850 48.959312,302.313660 
	C56.601231,301.820801 64.236771,301.151550 71.841423,300.256378 
	C72.789223,300.144806 73.545959,298.410126 74.391220,297.427521 
	C73.448143,296.720856 72.592010,295.656891 71.539307,295.400696 
	C70.307671,295.100983 68.906273,295.548340 67.575813,295.595612 
	C64.046051,295.721039 62.489876,294.355804 62.868542,290.491028 
	C64.061073,278.319885 65.578339,276.727051 77.694778,275.952026 
	C80.186287,275.792633 82.663345,275.419434 85.151459,275.193146 
	C95.738541,274.230408 95.739143,274.237061 100.209259,283.778656 
	C103.378334,290.543121 103.053894,291.103394 95.897720,293.207764 
	C94.823494,293.523651 94.107376,295.057343 93.225601,296.027679 
	C94.176842,296.739044 95.171799,298.117401 96.072533,298.058350 
	C104.876762,297.481171 113.672577,296.733398 122.447029,295.808777 
	C123.330986,295.715637 124.424652,294.240814 124.709198,293.210602 
	C124.858208,292.671112 123.411339,290.996826 122.767929,291.040955 
	C117.023392,291.435089 115.029259,287.262482 112.951248,283.244629 
	C104.774384,267.434601 96.589348,251.628159 88.538498,235.753860 
	C84.785004,228.352921 79.371391,224.033356 69.795197,224.980759 
M172.279404,279.405548 
	C172.816559,283.471008 172.332626,286.740173 167.175507,287.287659 
	C166.257690,287.385101 165.510620,289.090729 164.684708,290.053741 
	C165.724716,290.614716 166.800919,291.716705 167.798935,291.649963 
	C174.928726,291.173004 182.055939,290.568817 189.148972,289.714417 
	C190.399124,289.563812 191.485077,288.050171 192.646866,287.165985 
	C191.522293,286.495789 190.373138,285.217621 189.277435,285.261932 
	C184.825073,285.441956 183.437805,282.921478 183.108566,279.133667 
	C182.417038,271.178162 181.591324,263.232147 181.042130,255.267014 
	C180.517487,247.657639 178.383209,240.876099 170.587921,238.086731 
	C162.463608,235.179642 154.808182,236.834198 148.384048,242.776581 
	C146.975082,244.079880 146.106628,245.967514 144.989243,247.586029 
	C144.513245,247.256073 144.037262,246.926117 143.561264,246.596146 
	C143.373978,245.350128 143.128494,244.109634 143.009583,242.857132 
	C142.525818,237.761459 142.016953,237.478653 137.167084,239.337982 
	C133.913681,240.585281 130.547989,241.554901 127.348831,242.921097 
	C126.037308,243.481186 125.032036,244.758423 123.887459,245.709427 
	C125.160561,246.404739 126.398743,247.603378 127.713753,247.694626 
	C130.819916,247.910110 132.766602,248.931061 133.063782,252.295502 
	C134.000519,262.900635 134.972763,273.502838 135.995239,284.100006 
	C136.339951,287.672638 135.071106,289.734375 131.367661,290.480621 
	C130.142395,290.727478 129.166809,292.213623 128.077072,293.133148 
	C129.418701,293.719482 130.795563,294.877106 132.096069,294.796875 
	C139.062744,294.366974 146.020950,293.718597 152.953903,292.905426 
	C154.071075,292.774384 155.046356,291.433868 156.087219,290.652435 
	C155.028137,289.931915 153.965622,288.593353 152.910568,288.599243 
	C148.642410,288.622955 147.018158,286.519409 146.718979,282.511566 
	C146.137054,274.715881 145.411163,266.928284 144.587448,259.154022 
	C143.774994,251.486115 146.990524,246.524414 154.413132,244.391342 
	C162.965042,241.933731 169.287659,246.238800 170.109634,255.118408 
	C170.830353,262.904205 171.504028,270.694366 172.279404,279.405548 
M432.940643,198.906891 
	C432.974091,199.572571 432.984558,200.240341 433.044281,200.903641 
	C434.688019,219.149780 436.320190,237.396973 437.997131,255.640045 
	C438.375702,259.758087 437.742340,262.924530 432.677582,263.447327 
	C431.751770,263.542908 430.992432,265.251312 430.156250,266.215210 
	C431.392212,266.742859 432.662109,267.790588 433.858521,267.712463 
	C440.830841,267.257050 447.799225,266.647064 454.734192,265.803589 
	C455.946411,265.656158 456.993530,264.151520 458.116882,263.273712 
	C456.997253,262.612488 455.877380,261.390411 454.757996,261.390900 
	C450.746307,261.392639 449.145966,259.507324 448.820679,255.653442 
	C447.644135,241.713974 446.298004,227.788834 445.019928,213.857925 
	C444.020477,202.963852 443.026917,192.069214 441.952789,180.322296 
	C435.629059,182.380829 430.015686,184.141678 424.472992,186.102249 
	C423.829224,186.329971 423.131531,187.754303 423.273529,188.459915 
	C423.405182,189.114120 424.681824,190.068985 425.362091,189.998718 
	C431.493958,189.365356 432.665771,193.208664 432.940643,198.906891 
M354.851501,266.217194 
	C354.615692,269.884338 352.055054,270.615051 349.046722,271.168091 
	C348.215210,271.320923 347.637695,272.855438 346.943634,273.756012 
	C347.810669,274.321442 348.716248,275.426941 349.538727,275.368256 
	C357.165741,274.824066 364.786774,274.153412 372.384338,273.295990 
	C373.302582,273.192352 374.071411,271.764771 374.909454,270.950806 
	C373.951813,270.298279 372.941650,269.021332 372.045197,269.096710 
	C367.040619,269.517395 365.670959,266.559937 365.301300,262.444031 
	C364.587250,254.493561 364.205414,246.494171 363.050293,238.608139 
	C362.017792,231.558945 365.318054,229.129150 371.520233,225.768173 
	C374.750153,224.017899 378.032196,226.642212 377.566833,230.285645 
	C377.390350,231.667755 376.657593,232.978806 376.178162,234.322708 
	C382.549408,236.462646 386.802216,233.671600 386.993622,227.535294 
	C387.228912,219.991547 380.595825,215.428284 373.763916,218.926331 
	C369.623383,221.046356 366.072205,224.317429 362.131012,227.161758 
	C362.032410,225.925873 361.965485,224.774841 361.844940,223.629486 
	C361.282166,218.283051 360.741180,218.022461 355.610413,219.980927 
	C352.204651,221.280945 348.653534,222.215057 345.298889,223.625565 
	C344.202209,224.086670 343.519592,225.532532 342.647614,226.528046 
	C343.699432,227.066330 344.759491,228.077957 345.801666,228.059906 
	C350.028809,227.986649 351.721191,230.028244 352.040802,234.077377 
	C352.865204,244.520981 353.898804,254.948105 354.851501,266.217194 
M232.158722,230.874268 
	C230.780823,232.220200 229.402924,233.566116 228.024994,234.912033 
	C230.783005,235.591797 233.541031,236.271545 236.530243,237.008301 
	C236.608841,237.593353 236.775726,238.575165 236.868195,239.563950 
	C237.875977,250.340683 238.813187,261.124420 239.894302,271.893738 
	C240.507645,278.003418 243.379181,282.908142 249.407043,284.732574 
	C255.810913,286.670868 261.951813,285.104004 267.299103,281.060455 
	C267.940369,280.575562 268.386993,278.868225 268.025574,278.271423 
	C267.592865,277.556915 266.120972,276.989258 265.231201,277.139618 
	C263.630371,277.410187 262.173920,278.454956 260.576050,278.838013 
	C254.876663,280.204437 251.603012,278.467438 250.885239,272.668732 
	C249.358124,260.331421 248.402313,247.923386 247.188095,235.291977 
	C250.887772,235.047302 254.026093,234.766968 257.170502,234.649826 
	C261.313965,234.495499 262.377502,232.665955 260.515656,228.714142 
	C255.714584,229.286789 251.014832,229.847351 245.695312,230.481842 
	C245.695312,227.122375 245.944702,224.281097 245.609070,221.510712 
	C245.379181,219.613251 244.334839,217.814468 243.654587,215.971558 
	C242.328201,217.515121 240.890884,218.978134 239.698914,220.619324 
	C237.335831,223.873016 235.108109,227.225006 232.158722,230.874268 
M214.913788,250.440277 
	C214.294174,244.369644 213.674561,238.299011 212.985138,231.544296 
	C206.626694,233.647537 200.998962,235.443100 195.444885,237.443176 
	C194.857635,237.654663 194.175049,239.463760 194.457703,239.840302 
	C195.043381,240.620560 196.282272,241.424210 197.193680,241.361557 
	C202.482224,240.998077 203.631592,244.162918 203.955429,248.512787 
	C204.660202,257.979492 205.463882,267.440826 206.395706,276.887695 
	C206.796555,280.951416 206.056122,283.755981 201.304291,284.299316 
	C200.335419,284.410126 199.542419,286.058899 198.668365,286.998688 
	C199.691422,287.586700 200.751816,288.737915 201.731552,288.672913 
	C209.035507,288.188446 216.334396,287.556885 223.604919,286.713379 
	C224.713501,286.584778 225.667694,285.125305 226.693283,284.281372 
	C225.590103,283.575806 224.458252,282.228912 223.388779,282.276764 
	C218.986649,282.473694 217.446823,280.103668 217.118759,276.248199 
	C216.412735,267.951019 215.685593,259.655640 214.913788,250.440277 
M412.603577,226.744797 
	C412.114899,222.557938 411.626221,218.371063 411.096985,213.836548 
	C405.008179,215.809662 399.801270,217.411285 394.675812,219.241013 
	C393.806549,219.551346 393.287231,220.842010 392.606262,221.679764 
	C393.547882,222.387909 394.539856,223.761795 395.422821,223.694977 
	C400.722931,223.293930 401.826782,226.267792 402.135864,230.743118 
	C402.766510,239.874008 403.646301,248.993469 404.682312,258.088165 
	C405.204163,262.669403 404.667633,266.048920 399.164062,266.702667 
	C398.330719,266.801666 397.664642,268.308594 396.921173,269.164276 
	C397.760315,269.772308 398.638977,270.954163 399.432465,270.899536 
	C407.231873,270.362335 415.023651,269.679993 422.796356,268.842194 
	C423.579926,268.757721 424.762177,267.387085 424.771698,266.601349 
	C424.780121,265.907410 423.342285,264.528717 422.657166,264.597046 
	C416.014099,265.259674 415.493286,260.786957 415.109161,256.024384 
	C414.346375,246.566376 413.519928,237.113480 412.603577,226.744797 
M405.703339,201.184402 
	C409.128723,200.284531 411.644928,198.127213 411.157166,194.569199 
	C410.841278,192.264633 409.210205,188.827103 407.478912,188.337997 
	C404.890289,187.606674 401.128296,188.226273 398.939423,189.782166 
	C397.232910,190.995178 396.082764,194.765854 396.601624,196.943344 
	C397.516022,200.780899 401.103821,201.869034 405.703339,201.184402 
M204.675262,219.183945 
	C208.967224,219.228363 212.315323,217.690338 212.990982,213.103455 
	C213.571533,209.162216 211.681961,206.273819 207.756531,205.202667 
	C204.006851,204.179474 198.573135,207.378952 197.963379,211.022079 
	C197.194412,215.616470 199.494553,218.241272 204.675262,219.183945 
z"/>
<path fill="#DCDBDB" opacity="1.000000" stroke="none" 
	d="
M412.083008,325.931976 
	C414.017029,320.927124 415.846954,316.290375 417.671997,311.651733 
	C419.110657,307.995026 421.445160,306.316681 425.469055,307.871307 
	C429.406616,309.392639 430.234558,312.133514 428.929901,315.872101 
	C418.302460,346.325836 401.131256,372.484131 377.261200,394.175323 
	C355.062714,414.347595 329.316437,428.141266 300.375946,435.826477 
	C269.558319,444.010193 238.588638,444.593567 207.607651,436.584106 
	C154.141479,422.761627 114.269287,391.485291 87.669159,343.142212 
	C85.636581,339.448242 85.665421,336.551056 89.490501,334.256653 
	C93.432716,331.891998 95.824326,333.679749 98.121407,337.056824 
	C106.056046,348.722076 113.195351,361.123413 122.437614,371.666412 
	C147.166092,399.875183 178.268311,417.826904 215.038132,425.996613 
	C285.578705,441.669647 359.442444,411.525238 398.435547,350.680237 
	C403.441620,342.868774 407.486603,334.441376 412.083008,325.931976 
z"/>
<path fill="#DCDBDA" opacity="1.000000" stroke="none" 
	d="
M385.309448,165.852951 
	C379.302338,158.499115 373.978088,151.002396 367.838959,144.246109 
	C341.616180,115.387413 309.060974,98.420097 270.291443,93.939545 
	C202.591339,86.115540 140.972809,119.380714 110.052475,180.131149 
	C109.071632,182.058243 108.088806,183.984894 107.068954,185.891464 
	C105.218239,189.351257 102.489632,189.943207 99.102211,188.258286 
	C95.583046,186.507843 94.876083,183.751038 96.456001,180.349625 
	C106.745628,158.197159 120.620026,138.708939 139.184875,122.664940 
	C154.684845,109.269653 171.918884,98.800415 191.050293,91.475449 
	C206.054199,85.730812 221.613861,82.397438 237.599609,81.066727 
	C263.718719,78.892487 289.104156,82.592232 313.408844,92.154427 
	C337.220581,101.522667 358.287048,115.352043 375.396484,134.611008 
	C381.570221,141.560379 387.218445,149.009033 392.658936,156.552597 
	C393.891541,158.261642 394.203003,161.794022 393.264252,163.632065 
	C391.934143,166.236420 389.005341,167.893311 385.309448,165.852951 
z"/>
<path fill="#DAD9D9" opacity="1.000000" stroke="none" 
	d="
M287.500549,194.952515 
	C288.878754,204.900742 289.945038,214.637985 290.990021,224.377502 
	C291.290955,227.182297 291.530640,229.993668 291.915527,234.030838 
	C293.777435,232.187668 294.991272,231.033234 296.152527,229.828171 
	C300.735992,225.071823 306.529724,223.259720 312.900085,223.409760 
	C322.028595,223.624786 328.145111,229.740616 329.051544,239.202347 
	C329.908813,248.150558 330.766602,257.099426 331.510498,266.057434 
	C331.841309,270.041321 333.515839,272.153198 337.806305,272.024109 
	C338.812897,271.993835 339.862213,273.383789 340.891876,274.120331 
	C339.942902,274.819977 339.050079,276.025574 338.035919,276.138153 
	C330.758087,276.946259 323.461334,277.621246 316.154572,278.088226 
	C315.117310,278.154510 313.993500,276.866913 312.909760,276.205933 
	C313.753967,275.438538 314.512299,274.149872 315.457275,273.994171 
	C319.515503,273.325592 321.202667,271.227325 320.762573,267.096222 
	C319.810364,258.158112 319.149719,249.187683 318.114319,240.260117 
	C317.315948,233.376251 312.270538,229.592102 305.619659,230.465744 
	C297.503235,231.531891 292.190186,236.869476 292.760376,243.385010 
	C293.500580,251.843140 294.353973,260.293518 294.933441,268.762634 
	C295.217224,272.910736 296.553162,275.397644 301.245636,275.175018 
	C302.219513,275.128815 303.262543,276.539337 304.273682,277.278503 
	C303.386536,278.054413 302.564178,279.406494 301.601929,279.514709 
	C294.163696,280.351410 286.703552,281.026489 279.234833,281.517670 
	C278.307648,281.578674 277.290161,280.266968 276.314514,279.591309 
	C277.137817,278.756256 277.905365,277.271179 278.793793,277.194946 
	C283.456604,276.794647 284.559326,274.130249 284.188690,269.998383 
	C282.374207,249.769531 280.635437,229.533875 278.862579,209.301270 
	C278.557159,205.815552 276.984406,203.812363 273.129700,203.869904 
	C271.906830,203.888153 270.668121,202.842773 269.436646,202.284149 
	C270.477142,201.228333 271.334229,199.651428 272.590698,199.209167 
	C277.384186,197.521988 282.306396,196.200485 287.500549,194.952515 
z"/>
<path fill="#DAD9D9" opacity="1.000000" stroke="none" 
	d="
M70.238846,224.971603 
	C79.371391,224.033356 84.785004,228.352921 88.538498,235.753860 
	C96.589348,251.628159 104.774384,267.434601 112.951248,283.244629 
	C115.029259,287.262482 117.023392,291.435089 122.767929,291.040955 
	C123.411339,290.996826 124.858208,292.671112 124.709198,293.210602 
	C124.424652,294.240814 123.330986,295.715637 122.447029,295.808777 
	C113.672577,296.733398 104.876762,297.481171 96.072533,298.058350 
	C95.171799,298.117401 94.176842,296.739044 93.225601,296.027679 
	C94.107376,295.057343 94.823494,293.523651 95.897720,293.207764 
	C103.053894,291.103394 103.378334,290.543121 100.209259,283.778656 
	C95.739143,274.237061 95.738541,274.230408 85.151459,275.193146 
	C82.663345,275.419434 80.186287,275.792633 77.694778,275.952026 
	C65.578339,276.727051 64.061073,278.319885 62.868542,290.491028 
	C62.489876,294.355804 64.046051,295.721039 67.575813,295.595612 
	C68.906273,295.548340 70.307671,295.100983 71.539307,295.400696 
	C72.592010,295.656891 73.448143,296.720856 74.391220,297.427521 
	C73.545959,298.410126 72.789223,300.144806 71.841423,300.256378 
	C64.236771,301.151550 56.601231,301.820801 48.959312,302.313660 
	C48.072346,302.370850 47.088787,300.930237 46.150009,300.184052 
	C46.895081,299.271515 47.589741,297.620483 48.393349,297.565643 
	C53.818592,297.195312 55.551380,293.357330 56.923260,289.077637 
	C62.353924,272.136230 67.798935,255.199295 73.178535,238.241638 
	C74.858047,232.947464 74.047981,231.779877 68.939026,230.390198 
	C67.275444,229.937668 65.829292,228.685791 64.283684,227.799515 
	C66.120850,226.859924 67.958023,225.920334 70.238846,224.971603 
M72.577370,271.199951 
	C79.086067,270.631592 85.594772,270.063232 92.809662,269.433197 
	C87.805725,259.448792 83.220802,250.300415 78.088898,240.060654 
	C74.832024,250.453125 71.969101,259.572388 69.118515,268.695465 
	C68.373756,271.078979 69.506172,271.681824 72.577370,271.199951 
z"/>
<path fill="#DAD9D9" opacity="1.000000" stroke="none" 
	d="
M172.238937,278.944092 
	C171.504028,270.694366 170.830353,262.904205 170.109634,255.118408 
	C169.287659,246.238800 162.965042,241.933731 154.413132,244.391342 
	C146.990524,246.524414 143.774994,251.486115 144.587448,259.154022 
	C145.411163,266.928284 146.137054,274.715881 146.718979,282.511566 
	C147.018158,286.519409 148.642410,288.622955 152.910568,288.599243 
	C153.965622,288.593353 155.028137,289.931915 156.087219,290.652435 
	C155.046356,291.433868 154.071075,292.774384 152.953903,292.905426 
	C146.020950,293.718597 139.062744,294.366974 132.096069,294.796875 
	C130.795563,294.877106 129.418701,293.719482 128.077072,293.133148 
	C129.166809,292.213623 130.142395,290.727478 131.367661,290.480621 
	C135.071106,289.734375 136.339951,287.672638 135.995239,284.100006 
	C134.972763,273.502838 134.000519,262.900635 133.063782,252.295502 
	C132.766602,248.931061 130.819916,247.910110 127.713753,247.694626 
	C126.398743,247.603378 125.160561,246.404739 123.887451,245.709412 
	C125.032036,244.758423 126.037308,243.481186 127.348831,242.921097 
	C130.547989,241.554901 133.913681,240.585281 137.167084,239.337982 
	C142.016953,237.478653 142.525818,237.761459 143.009583,242.857132 
	C143.128494,244.109634 143.373978,245.350128 143.561264,246.596146 
	C144.037262,246.926117 144.513245,247.256073 144.989243,247.586029 
	C146.106628,245.967514 146.975082,244.079880 148.384048,242.776581 
	C154.808182,236.834198 162.463608,235.179642 170.587921,238.086731 
	C178.383209,240.876099 180.517487,247.657639 181.042130,255.267014 
	C181.591324,263.232147 182.417038,271.178162 183.108566,279.133667 
	C183.437805,282.921478 184.825073,285.441956 189.277435,285.261932 
	C190.373138,285.217621 191.522293,286.495789 192.646866,287.166016 
	C191.485077,288.050171 190.399124,289.563812 189.148972,289.714417 
	C182.055939,290.568817 174.928726,291.173004 167.798935,291.649963 
	C166.800919,291.716705 165.724716,290.614716 164.684723,290.053741 
	C165.510620,289.090729 166.257690,287.385101 167.175507,287.287659 
	C172.332626,286.740173 172.816559,283.471008 172.238937,278.944092 
z"/>
<path fill="#DBDADA" opacity="1.000000" stroke="none" 
	d="
M432.911285,198.463196 
	C432.665771,193.208664 431.493958,189.365356 425.362091,189.998718 
	C424.681824,190.068985 423.405182,189.114120 423.273529,188.459915 
	C423.131531,187.754303 423.829224,186.329971 424.472992,186.102249 
	C430.015686,184.141678 435.629059,182.380829 441.952789,180.322296 
	C443.026917,192.069214 444.020477,202.963852 445.019928,213.857925 
	C446.298004,227.788834 447.644135,241.713974 448.820679,255.653442 
	C449.145966,259.507324 450.746307,261.392639 454.757996,261.390900 
	C455.877380,261.390411 456.997253,262.612488 458.116882,263.273712 
	C456.993530,264.151520 455.946411,265.656158 454.734192,265.803589 
	C447.799225,266.647064 440.830841,267.257050 433.858521,267.712463 
	C432.662109,267.790588 431.392212,266.742859 430.156250,266.215210 
	C430.992432,265.251312 431.751770,263.542908 432.677582,263.447327 
	C437.742340,262.924530 438.375702,259.758087 437.997131,255.640045 
	C436.320190,237.396973 434.688019,219.149780 433.044281,200.903641 
	C432.984558,200.240341 432.974091,199.572571 432.911285,198.463196 
z"/>
<path fill="#DBDAD9" opacity="1.000000" stroke="none" 
	d="
M354.850159,265.799500 
	C353.898804,254.948105 352.865204,244.520981 352.040802,234.077377 
	C351.721191,230.028244 350.028809,227.986649 345.801666,228.059906 
	C344.759491,228.077957 343.699432,227.066330 342.647614,226.528046 
	C343.519592,225.532532 344.202209,224.086670 345.298889,223.625565 
	C348.653534,222.215057 352.204651,221.280945 355.610413,219.980927 
	C360.741180,218.022461 361.282166,218.283051 361.844940,223.629486 
	C361.965485,224.774841 362.032410,225.925873 362.131012,227.161758 
	C366.072205,224.317429 369.623383,221.046356 373.763916,218.926331 
	C380.595825,215.428284 387.228912,219.991547 386.993622,227.535294 
	C386.802216,233.671600 382.549408,236.462646 376.178162,234.322708 
	C376.657593,232.978806 377.390350,231.667755 377.566833,230.285645 
	C378.032196,226.642212 374.750153,224.017899 371.520233,225.768173 
	C365.318054,229.129150 362.017792,231.558945 363.050293,238.608139 
	C364.205414,246.494171 364.587250,254.493561 365.301300,262.444031 
	C365.670959,266.559937 367.040619,269.517395 372.045197,269.096710 
	C372.941650,269.021332 373.951813,270.298279 374.909454,270.950806 
	C374.071411,271.764771 373.302582,273.192352 372.384338,273.295990 
	C364.786774,274.153412 357.165741,274.824066 349.538727,275.368256 
	C348.716248,275.426941 347.810669,274.321442 346.943634,273.756012 
	C347.637695,272.855438 348.215210,271.320923 349.046722,271.168091 
	C352.055054,270.615051 354.615692,269.884338 354.850159,265.799500 
z"/>
<path fill="#DAD9D9" opacity="1.000000" stroke="none" 
	d="
M232.491577,230.705322 
	C235.108109,227.225006 237.335831,223.873016 239.698914,220.619324 
	C240.890884,218.978134 242.328201,217.515121 243.654602,215.971558 
	C244.334839,217.814468 245.379181,219.613251 245.609070,221.510712 
	C245.944702,224.281097 245.695312,227.122375 245.695312,230.481842 
	C251.014832,229.847351 255.714584,229.286789 260.515656,228.714142 
	C262.377502,232.665955 261.313965,234.495499 257.170502,234.649826 
	C254.026093,234.766968 250.887772,235.047302 247.188095,235.291977 
	C248.402313,247.923386 249.358124,260.331421 250.885239,272.668732 
	C251.603012,278.467438 254.876663,280.204437 260.576050,278.838013 
	C262.173920,278.454956 263.630371,277.410187 265.231201,277.139618 
	C266.120972,276.989258 267.592865,277.556915 268.025574,278.271423 
	C268.386993,278.868225 267.940369,280.575562 267.299103,281.060455 
	C261.951813,285.104004 255.810913,286.670868 249.407043,284.732574 
	C243.379181,282.908142 240.507645,278.003418 239.894302,271.893738 
	C238.813187,261.124420 237.875977,250.340683 236.868195,239.563950 
	C236.775726,238.575165 236.608841,237.593353 236.530243,237.008301 
	C233.541031,236.271545 230.783005,235.591797 228.024994,234.912033 
	C229.402924,233.566116 230.780823,232.220200 232.491577,230.705322 
z"/>
<path fill="#DAD9D8" opacity="1.000000" stroke="none" 
	d="
M214.940445,250.899902 
	C215.685593,259.655640 216.412735,267.951019 217.118759,276.248199 
	C217.446823,280.103668 218.986649,282.473694 223.388779,282.276764 
	C224.458252,282.228912 225.590103,283.575806 226.693298,284.281372 
	C225.667694,285.125305 224.713501,286.584778 223.604919,286.713379 
	C216.334396,287.556885 209.035507,288.188446 201.731552,288.672913 
	C200.751816,288.737915 199.691422,287.586700 198.668365,286.998688 
	C199.542419,286.058899 200.335419,284.410126 201.304291,284.299316 
	C206.056122,283.755981 206.796555,280.951416 206.395706,276.887695 
	C205.463882,267.440826 204.660202,257.979492 203.955429,248.512787 
	C203.631592,244.162918 202.482224,240.998077 197.193680,241.361557 
	C196.282272,241.424210 195.043381,240.620560 194.457703,239.840302 
	C194.175049,239.463760 194.857635,237.654663 195.444885,237.443176 
	C200.998962,235.443100 206.626694,233.647537 212.985138,231.544296 
	C213.674561,238.299011 214.294174,244.369644 214.940445,250.899902 
z"/>
<path fill="#DAD9D9" opacity="1.000000" stroke="none" 
	d="
M412.661682,227.201630 
	C413.519928,237.113480 414.346375,246.566376 415.109161,256.024384 
	C415.493286,260.786957 416.014099,265.259674 422.657166,264.597046 
	C423.342285,264.528717 424.780121,265.907410 424.771698,266.601349 
	C424.762177,267.387085 423.579926,268.757721 422.796356,268.842194 
	C415.023651,269.679993 407.231873,270.362335 399.432465,270.899536 
	C398.638977,270.954163 397.760315,269.772308 396.921173,269.164276 
	C397.664642,268.308594 398.330719,266.801666 399.164062,266.702667 
	C404.667633,266.048920 405.204163,262.669403 404.682312,258.088165 
	C403.646301,248.993469 402.766510,239.874008 402.135864,230.743118 
	C401.826782,226.267792 400.722931,223.293930 395.422821,223.694977 
	C394.539856,223.761795 393.547882,222.387909 392.606262,221.679749 
	C393.287231,220.842010 393.806549,219.551346 394.675812,219.241013 
	C399.801270,217.411285 405.008179,215.809662 411.096985,213.836548 
	C411.626221,218.371063 412.114899,222.557938 412.661682,227.201630 
z"/>
<path fill="#DAD9D9" opacity="1.000000" stroke="none" 
	d="
M405.335907,201.262543 
	C401.103821,201.869034 397.516022,200.780899 396.601624,196.943344 
	C396.082764,194.765854 397.232910,190.995178 398.939423,189.782166 
	C401.128296,188.226273 404.890289,187.606674 407.478912,188.337997 
	C409.210205,188.827103 410.841278,192.264633 411.157166,194.569199 
	C411.644928,198.127213 409.128723,200.284531 405.335907,201.262543 
z"/>
<path fill="#D9D8D8" opacity="1.000000" stroke="none" 
	d="
M204.314209,219.153473 
	C199.494553,218.241272 197.194412,215.616470 197.963379,211.022079 
	C198.573135,207.378952 204.006851,204.179474 207.756531,205.202667 
	C211.681961,206.273819 213.571533,209.162216 212.990982,213.103455 
	C212.315323,217.690338 208.967224,219.228363 204.314209,219.153473 
z"/>
<path fill="#204736" opacity="1.000000" stroke="none" 
	d="
M72.109085,271.242493 
	C69.506172,271.681824 68.373756,271.078979 69.118515,268.695465 
	C71.969101,259.572388 74.832024,250.453125 78.088898,240.060654 
	C83.220802,250.300415 87.805725,259.448792 92.809662,269.433197 
	C85.594772,270.063232 79.086067,270.631592 72.109085,271.242493 
z"/>
</svg>