<svg version="1.1" id="Layer_1" xmlns="http://www.w3.org/2000/svg" xmlns:xlink="http://www.w3.org/1999/xlink" x="0px" y="0px"
	 width="100%" viewBox="0 0 500 500" enable-background="new 0 0 500 500" xml:space="preserve">
<path fill="#1B4332" opacity="1.000000" stroke="none" 
	d="
M294.000000,501.000000 
	C196.000031,501.000000 98.500046,501.000000 1.000052,501.000000 
	C1.000035,334.333405 1.000035,167.666794 1.000017,1.000142 
	C167.666565,1.000095 334.333130,1.000095 500.999756,1.000047 
	C500.999847,167.666519 500.999847,334.333038 500.999939,500.999786 
	C432.166656,501.000000 363.333344,501.000000 294.000000,501.000000 
M379.513306,178.825195 
	C375.369843,178.825195 371.226379,178.825195 366.865021,178.825195 
	C366.865021,182.270187 366.865021,185.358658 366.865021,188.956955 
	C391.667297,188.956955 416.198486,188.956955 441.073517,188.956955 
	C441.073517,214.210083 441.073517,238.954758 441.073517,263.886871 
	C444.487274,263.886871 447.547394,263.886871 450.698425,263.886871 
	C450.698425,235.453903 450.698425,207.251511 450.698425,178.825195 
	C427.097565,178.825195 403.802917,178.825195 379.513306,178.825195 
M50.994678,295.500000 
	C50.994678,304.608612 50.994678,313.717255 50.994678,322.849640 
	C79.350601,322.849640 107.205070,322.849640 134.991394,322.849640 
	C134.991394,319.458069 134.991394,316.404633 134.991394,313.005249 
	C110.188011,313.005249 85.779602,313.005249 60.867081,313.005249 
	C60.867081,287.778656 60.867081,262.904480 60.867081,238.237000 
	C57.282654,238.237000 54.219357,238.237000 50.994678,238.237000 
	C50.994678,257.230682 50.994678,275.865326 50.994678,295.500000 
M169.643829,247.812729 
	C165.275131,242.144028 161.054459,236.350662 156.448517,230.881775 
	C155.047363,229.218124 152.583786,228.449234 150.591583,227.261475 
	C149.739349,228.749832 149.434738,229.034271 149.432861,229.320679 
	C149.350952,241.973679 149.206284,254.628174 149.393173,267.277710 
	C149.409592,268.387939 151.619858,269.465790 152.811127,270.558655 
	C153.321304,270.213409 153.831482,269.868134 154.341660,269.522858 
	C154.341660,258.867188 154.341660,248.211502 154.341660,236.089111 
	C156.406845,238.628677 157.552719,239.962250 158.616608,241.358322 
	C165.173874,249.963043 171.609467,258.664001 178.347275,267.124542 
	C179.647675,268.757385 182.107162,269.467163 184.836517,271.077393 
	C184.836517,255.702209 184.836517,242.109222 184.836517,228.390839 
	C181.535965,227.419952 180.009369,228.086990 180.062714,231.703751 
	C180.201004,241.083496 180.109116,250.466629 180.109116,261.292053 
	C176.121567,256.166534 173.094040,252.275024 169.643829,247.812729 
M327.126312,254.681274 
	C328.487061,255.585541 330.324677,256.192596 331.111298,257.454712 
	C332.858612,260.258087 334.240540,263.325317 335.469971,266.405304 
	C336.733521,269.570740 338.591492,270.945221 342.410645,269.392365 
	C339.908051,264.052307 337.420502,258.744324 334.979462,253.535660 
	C341.369965,248.675690 343.388123,244.373993 342.111237,238.442459 
	C340.944885,233.024246 337.482544,229.108185 332.181671,228.495804 
	C325.541626,227.728683 318.745697,228.311234 311.879150,228.311234 
	C311.879150,242.314636 311.879150,255.915970 311.879150,269.488678 
	C316.324432,269.983368 316.378906,269.984406 316.450775,266.185333 
	C316.521545,262.444733 316.466217,258.701752 316.466217,254.682892 
	C320.240967,254.682892 323.220337,254.682892 327.126312,254.681274 
M287.560120,245.560669 
	C280.642456,245.560669 273.724823,245.560669 266.434143,245.560669 
	C266.434143,240.323471 266.348145,235.854401 266.462006,231.390427 
	C266.549500,227.960312 264.976898,227.382080 262.001099,228.482452 
	C262.001099,242.219467 262.001099,255.928833 262.001099,269.571106 
	C265.418427,270.699524 266.555878,269.543304 266.472626,266.378052 
	C266.334717,261.133026 266.435150,255.881683 266.435150,250.535126 
	C275.147675,250.535126 283.063751,250.535126 291.527954,250.535126 
	C291.527954,257.059021 291.527954,263.320099 291.527954,269.397003 
	C294.971039,270.641571 296.403442,269.952820 296.334686,266.552551 
	C296.196777,259.731201 296.295959,252.905045 296.296600,246.080872 
	C296.297150,240.133942 296.296692,234.186996 296.296692,228.492065 
	C292.467804,227.297867 291.347015,228.576935 291.471893,231.688126 
	C291.612000,235.177704 291.748657,238.705139 291.363831,242.157791 
	C291.227783,243.378616 289.551514,244.427780 287.560120,245.560669 
M105.822586,253.148453 
	C103.591385,258.539062 101.360176,263.929688 99.128975,269.320312 
	C99.632477,269.746460 100.135986,270.172607 100.639488,270.598785 
	C102.127266,269.579010 104.655975,268.780151 104.927193,267.502197 
	C106.284988,261.104492 110.424126,260.172577 115.895027,260.881805 
	C117.857445,261.136200 119.924263,261.189056 121.867325,260.870178 
	C126.724419,260.073059 129.737122,261.671295 130.793961,266.684418 
	C131.500122,270.034180 133.602127,270.807648 137.041641,269.235931 
	C131.626999,256.120728 126.299301,243.112167 120.823891,230.166077 
	C120.419167,229.209137 118.923500,228.108017 117.985535,228.151962 
	C117.041634,228.196213 115.756691,229.410477 115.317101,230.416245 
	C112.130371,237.707153 109.119827,245.075089 105.822586,253.148453 
M235.635513,253.496292 
	C235.635513,246.747116 235.635513,239.997955 235.635513,232.968674 
	C239.456482,232.968674 242.626999,233.204208 245.729462,232.847733 
	C246.900131,232.713226 247.913437,231.209320 248.998489,230.329666 
	C248.014084,229.540939 247.043533,228.088470 246.043106,228.067612 
	C237.382339,227.886810 228.714569,227.885529 220.053925,228.069443 
	C219.054077,228.090698 218.085175,229.568634 217.101913,230.371201 
	C218.043716,231.236298 218.926285,232.755829 219.938095,232.847412 
	C223.379425,233.158920 226.866364,232.966507 230.849319,232.966507 
	C230.849319,245.503738 230.849319,257.578583 230.849319,269.611359 
	C235.420639,269.820251 235.516754,269.822815 235.605698,266.489716 
	C235.712326,262.493500 235.633820,258.492371 235.635513,253.496292 
M376.271606,269.066681 
	C383.806427,269.383667 391.340027,269.823944 398.877197,269.897583 
	C400.150848,269.910034 401.439911,268.342438 402.721832,267.504822 
	C401.382050,266.701752 400.070801,265.267609 398.697479,265.205475 
	C392.941895,264.945007 387.167694,265.095581 380.922272,265.095581 
	C380.922272,252.592758 380.922272,240.542709 380.922272,228.607452 
	C377.225342,227.225525 375.957855,228.255630 375.991974,231.748779 
	C376.110565,243.879440 376.052246,256.011841 376.271606,269.066681 
M200.212585,256.484375 
	C200.213043,259.646149 200.334625,262.813812 200.182281,265.968201 
	C200.005630,269.625824 201.326904,270.937042 205.015945,269.462769 
	C205.015945,255.809067 205.015945,242.191116 205.015945,228.540878 
	C201.313004,227.047470 200.107025,228.376678 200.171249,232.027054 
	C200.308823,239.845886 200.212906,247.668839 200.212585,256.484375 
M355.876709,233.657928 
	C355.876709,245.603867 355.876709,257.549805 355.876709,269.594849 
	C359.328674,270.509918 360.928619,269.958527 360.888580,266.312805 
	C360.762482,254.833878 360.775879,243.352081 360.884064,231.872787 
	C360.915802,228.506195 359.763153,227.232788 356.119995,228.415329 
	C356.042297,229.785507 355.959564,231.244308 355.876709,233.657928 
z"/>
<path fill="#FCFDFD" opacity="1.000000" stroke="none" 
	d="
M380.010773,178.825195 
	C403.802917,178.825195 427.097565,178.825195 450.698425,178.825195 
	C450.698425,207.251511 450.698425,235.453903 450.698425,263.886871 
	C447.547394,263.886871 444.487274,263.886871 441.073517,263.886871 
	C441.073517,238.954758 441.073517,214.210083 441.073517,188.956955 
	C416.198486,188.956955 391.667297,188.956955 366.865021,188.956955 
	C366.865021,185.358658 366.865021,182.270187 366.865021,178.825195 
	C371.226379,178.825195 375.369843,178.825195 380.010773,178.825195 
z"/>
<path fill="#FCFDFD" opacity="1.000000" stroke="none" 
	d="
M50.994678,295.000000 
	C50.994678,275.865326 50.994678,257.230682 50.994678,238.237000 
	C54.219357,238.237000 57.282654,238.237000 60.867081,238.237000 
	C60.867081,262.904480 60.867081,287.778656 60.867081,313.005249 
	C85.779602,313.005249 110.188011,313.005249 134.991394,313.005249 
	C134.991394,316.404633 134.991394,319.458069 134.991394,322.849640 
	C107.205070,322.849640 79.350601,322.849640 50.994678,322.849640 
	C50.994678,313.717255 50.994678,304.608612 50.994678,295.000000 
z"/>
<path fill="#F3F5F4" opacity="1.000000" stroke="none" 
	d="
M169.855164,248.098114 
	C173.094040,252.275024 176.121567,256.166534 180.109116,261.292053 
	C180.109116,250.466629 180.201004,241.083496 180.062714,231.703751 
	C180.009369,228.086990 181.535965,227.419952 184.836517,228.390839 
	C184.836517,242.109222 184.836517,255.702209 184.836517,271.077393 
	C182.107162,269.467163 179.647675,268.757385 178.347275,267.124542 
	C171.609467,258.664001 165.173874,249.963043 158.616608,241.358322 
	C157.552719,239.962250 156.406845,238.628677 154.341660,236.089111 
	C154.341660,248.211502 154.341660,258.867188 154.341660,269.522858 
	C153.831482,269.868134 153.321304,270.213409 152.811127,270.558655 
	C151.619858,269.465790 149.409592,268.387939 149.393173,267.277710 
	C149.206284,254.628174 149.350952,241.973679 149.432861,229.320679 
	C149.434738,229.034271 149.739349,228.749832 150.591583,227.261475 
	C152.583786,228.449234 155.047363,229.218124 156.448517,230.881775 
	C161.054459,236.350662 165.275131,242.144028 169.855164,248.098114 
z"/>
<path fill="#F7F8F7" opacity="1.000000" stroke="none" 
	d="
M326.663025,254.682083 
	C323.220337,254.682892 320.240967,254.682892 316.466217,254.682892 
	C316.466217,258.701752 316.521545,262.444733 316.450775,266.185333 
	C316.378906,269.984406 316.324432,269.983368 311.879150,269.488678 
	C311.879150,255.915970 311.879150,242.314636 311.879150,228.311234 
	C318.745697,228.311234 325.541626,227.728683 332.181671,228.495804 
	C337.482544,229.108185 340.944885,233.024246 342.111237,238.442459 
	C343.388123,244.373993 341.369965,248.675690 334.979462,253.535660 
	C337.420502,258.744324 339.908051,264.052307 342.410645,269.392365 
	C338.591492,270.945221 336.733521,269.570740 335.469971,266.405304 
	C334.240540,263.325317 332.858612,260.258087 331.111298,257.454712 
	C330.324677,256.192596 328.487061,255.585541 326.663025,254.682083 
M333.153229,233.879913 
	C327.777191,233.401474 322.401154,232.923050 316.718048,232.417282 
	C316.718048,238.633957 316.718048,244.026978 316.718048,249.865234 
	C320.614410,249.865234 324.228943,249.846512 327.843170,249.870148 
	C332.018494,249.897446 335.397278,248.489838 336.984344,244.379257 
	C338.567230,240.279449 337.193878,236.926758 333.153229,233.879913 
z"/>
<path fill="#FEFEFE" opacity="1.000000" stroke="none" 
	d="
M288.069275,245.557983 
	C289.551514,244.427780 291.227783,243.378616 291.363831,242.157791 
	C291.748657,238.705139 291.612000,235.177704 291.471893,231.688126 
	C291.347015,228.576935 292.467804,227.297867 296.296692,228.492065 
	C296.296692,234.186996 296.297150,240.133942 296.296600,246.080872 
	C296.295959,252.905045 296.196777,259.731201 296.334686,266.552551 
	C296.403442,269.952820 294.971039,270.641571 291.527954,269.397003 
	C291.527954,263.320099 291.527954,257.059021 291.527954,250.535126 
	C283.063751,250.535126 275.147675,250.535126 266.435150,250.535126 
	C266.435150,255.881683 266.334717,261.133026 266.472626,266.378052 
	C266.555878,269.543304 265.418427,270.699524 262.001099,269.571106 
	C262.001099,255.928833 262.001099,242.219467 262.001099,228.482452 
	C264.976898,227.382080 266.549500,227.960312 266.462006,231.390427 
	C266.348145,235.854401 266.434143,240.323471 266.434143,245.560669 
	C273.724823,245.560669 280.642456,245.560669 288.069275,245.557983 
z"/>
<path fill="#F4F6F5" opacity="1.000000" stroke="none" 
	d="
M105.938057,252.783539 
	C109.119827,245.075089 112.130371,237.707153 115.317101,230.416245 
	C115.756691,229.410477 117.041634,228.196213 117.985535,228.151962 
	C118.923500,228.108017 120.419167,229.209137 120.823891,230.166077 
	C126.299301,243.112167 131.626999,256.120728 137.041641,269.235931 
	C133.602127,270.807648 131.500122,270.034180 130.793961,266.684418 
	C129.737122,261.671295 126.724419,260.073059 121.867325,260.870178 
	C119.924263,261.189056 117.857445,261.136200 115.895027,260.881805 
	C110.424126,260.172577 106.284988,261.104492 104.927193,267.502197 
	C104.655975,268.780151 102.127266,269.579010 100.639488,270.598785 
	C100.135986,270.172607 99.632477,269.746460 99.128975,269.320312 
	C101.360176,263.929688 103.591385,258.539062 105.938057,252.783539 
M115.433220,241.883011 
	C113.630943,246.470383 111.828667,251.057770 109.977974,255.768372 
	C115.547752,255.768372 120.643776,255.768372 126.276001,255.768372 
	C123.597702,249.112595 121.073418,242.839554 118.143448,235.558350 
	C117.044044,238.188965 116.417198,239.688858 115.433220,241.883011 
z"/>
<path fill="#F1F4F2" opacity="1.000000" stroke="none" 
	d="
M235.635498,253.994827 
	C235.633820,258.492371 235.712326,262.493500 235.605698,266.489716 
	C235.516754,269.822815 235.420639,269.820251 230.849319,269.611359 
	C230.849319,257.578583 230.849319,245.503738 230.849319,232.966507 
	C226.866364,232.966507 223.379425,233.158920 219.938095,232.847412 
	C218.926285,232.755829 218.043716,231.236298 217.101913,230.371201 
	C218.085175,229.568634 219.054077,228.090698 220.053925,228.069443 
	C228.714569,227.885529 237.382339,227.886810 246.043106,228.067612 
	C247.043533,228.088470 248.014084,229.540939 248.998474,230.329651 
	C247.913437,231.209320 246.900131,232.713226 245.729462,232.847733 
	C242.626999,233.204208 239.456482,232.968674 235.635513,232.968674 
	C235.635513,239.997955 235.635513,246.747116 235.635498,253.994827 
z"/>
<path fill="#F7F8F7" opacity="1.000000" stroke="none" 
	d="
M376.166382,268.605103 
	C376.052246,256.011841 376.110565,243.879440 375.991974,231.748779 
	C375.957855,228.255630 377.225342,227.225525 380.922272,228.607452 
	C380.922272,240.542709 380.922272,252.592758 380.922272,265.095581 
	C387.167694,265.095581 392.941895,264.945007 398.697479,265.205475 
	C400.070801,265.267609 401.382050,266.701752 402.721832,267.504822 
	C401.439911,268.342438 400.150848,269.910034 398.877197,269.897583 
	C391.340027,269.823944 383.806427,269.383667 376.166382,268.605103 
z"/>
<path fill="#EFF2F1" opacity="1.000000" stroke="none" 
	d="
M200.212585,255.987244 
	C200.212906,247.668839 200.308823,239.845886 200.171249,232.027054 
	C200.107025,228.376678 201.313004,227.047470 205.015945,228.540878 
	C205.015945,242.191116 205.015945,255.809067 205.015945,269.462769 
	C201.326904,270.937042 200.005630,269.625824 200.182281,265.968201 
	C200.334625,262.813812 200.213043,259.646149 200.212585,255.987244 
z"/>
<path fill="#F1F4F2" opacity="1.000000" stroke="none" 
	d="
M355.876770,233.180511 
	C355.959564,231.244308 356.042297,229.785507 356.119995,228.415329 
	C359.763153,227.232788 360.915802,228.506195 360.884064,231.872787 
	C360.775879,243.352081 360.762482,254.833878 360.888580,266.312805 
	C360.928619,269.958527 359.328674,270.509918 355.876709,269.594849 
	C355.876709,257.549805 355.876709,245.603867 355.876770,233.180511 
z"/>
<path fill="#254B3B" opacity="1.000000" stroke="none" 
	d="
M333.510590,234.067474 
	C337.193878,236.926758 338.567230,240.279449 336.984344,244.379257 
	C335.397278,248.489838 332.018494,249.897446 327.843170,249.870148 
	C324.228943,249.846512 320.614410,249.865234 316.718048,249.865234 
	C316.718048,244.026978 316.718048,238.633957 316.718048,232.417282 
	C322.401154,232.923050 327.777191,233.401474 333.510590,234.067474 
z"/>
<path fill="#224938" opacity="1.000000" stroke="none" 
	d="
M115.611786,241.535889 
	C116.417198,239.688858 117.044044,238.188965 118.143448,235.558350 
	C121.073418,242.839554 123.597702,249.112595 126.276001,255.768372 
	C120.643776,255.768372 115.547752,255.768372 109.977974,255.768372 
	C111.828667,251.057770 113.630943,246.470383 115.611786,241.535889 
z"/>
</svg>